<mxfile host="Electron" modified="2024-01-28T20:58:49.625Z" agent="Mozilla/5.0 (Macintosh; Intel Mac OS X 10_15_7) AppleWebKit/537.36 (KHTML, like Gecko) draw.io/22.1.2 Chrome/114.0.5735.289 Electron/25.9.4 Safari/537.36" etag="7L6_9XpNY_lx1h-pCFcV" version="22.1.2" type="device">
  <diagram name="Page-1" id="BW_q8kiMvgOXN0_l9w44">
    <mxGraphModel dx="1181" dy="976" grid="1" gridSize="10" guides="1" tooltips="1" connect="1" arrows="1" fold="1" page="1" pageScale="1" pageWidth="827" pageHeight="1169" math="0" shadow="0">
      <root>
        <mxCell id="0" />
        <mxCell id="1" parent="0" />
        <mxCell id="4HVdgIBvoIVfLKKro9Ar-2" value="" style="whiteSpace=wrap;html=1;aspect=fixed;" vertex="1" parent="1">
          <mxGeometry x="240" y="230" width="20" height="20" as="geometry" />
        </mxCell>
        <mxCell id="4HVdgIBvoIVfLKKro9Ar-3" value="" style="whiteSpace=wrap;html=1;aspect=fixed;" vertex="1" parent="1">
          <mxGeometry x="260" y="230" width="20" height="20" as="geometry" />
        </mxCell>
        <mxCell id="4HVdgIBvoIVfLKKro9Ar-4" value="" style="whiteSpace=wrap;html=1;aspect=fixed;" vertex="1" parent="1">
          <mxGeometry x="280" y="230" width="20" height="20" as="geometry" />
        </mxCell>
        <mxCell id="4HVdgIBvoIVfLKKro9Ar-5" value="" style="whiteSpace=wrap;html=1;aspect=fixed;" vertex="1" parent="1">
          <mxGeometry x="300" y="230" width="20" height="20" as="geometry" />
        </mxCell>
        <mxCell id="4HVdgIBvoIVfLKKro9Ar-6" value="" style="whiteSpace=wrap;html=1;aspect=fixed;" vertex="1" parent="1">
          <mxGeometry x="320" y="230" width="20" height="20" as="geometry" />
        </mxCell>
        <mxCell id="4HVdgIBvoIVfLKKro9Ar-7" value="" style="whiteSpace=wrap;html=1;aspect=fixed;" vertex="1" parent="1">
          <mxGeometry x="340" y="230" width="20" height="20" as="geometry" />
        </mxCell>
        <mxCell id="4HVdgIBvoIVfLKKro9Ar-8" value="" style="whiteSpace=wrap;html=1;aspect=fixed;" vertex="1" parent="1">
          <mxGeometry x="360" y="230" width="20" height="20" as="geometry" />
        </mxCell>
        <mxCell id="4HVdgIBvoIVfLKKro9Ar-9" value="" style="whiteSpace=wrap;html=1;aspect=fixed;" vertex="1" parent="1">
          <mxGeometry x="380" y="230" width="20" height="20" as="geometry" />
        </mxCell>
        <mxCell id="4HVdgIBvoIVfLKKro9Ar-10" value="" style="whiteSpace=wrap;html=1;aspect=fixed;" vertex="1" parent="1">
          <mxGeometry x="400" y="230" width="20" height="20" as="geometry" />
        </mxCell>
        <mxCell id="4HVdgIBvoIVfLKKro9Ar-11" value="" style="whiteSpace=wrap;html=1;aspect=fixed;" vertex="1" parent="1">
          <mxGeometry x="420" y="230" width="20" height="20" as="geometry" />
        </mxCell>
        <mxCell id="4HVdgIBvoIVfLKKro9Ar-12" value="" style="whiteSpace=wrap;html=1;aspect=fixed;" vertex="1" parent="1">
          <mxGeometry x="440" y="230" width="20" height="20" as="geometry" />
        </mxCell>
        <mxCell id="4HVdgIBvoIVfLKKro9Ar-13" value="" style="whiteSpace=wrap;html=1;aspect=fixed;" vertex="1" parent="1">
          <mxGeometry x="460" y="230" width="20" height="20" as="geometry" />
        </mxCell>
        <mxCell id="4HVdgIBvoIVfLKKro9Ar-14" value="" style="whiteSpace=wrap;html=1;aspect=fixed;" vertex="1" parent="1">
          <mxGeometry x="240" y="250" width="20" height="20" as="geometry" />
        </mxCell>
        <mxCell id="4HVdgIBvoIVfLKKro9Ar-15" value="" style="whiteSpace=wrap;html=1;aspect=fixed;" vertex="1" parent="1">
          <mxGeometry x="260" y="250" width="20" height="20" as="geometry" />
        </mxCell>
        <mxCell id="4HVdgIBvoIVfLKKro9Ar-16" value="" style="whiteSpace=wrap;html=1;aspect=fixed;" vertex="1" parent="1">
          <mxGeometry x="280" y="250" width="20" height="20" as="geometry" />
        </mxCell>
        <mxCell id="4HVdgIBvoIVfLKKro9Ar-17" value="" style="whiteSpace=wrap;html=1;aspect=fixed;" vertex="1" parent="1">
          <mxGeometry x="300" y="250" width="20" height="20" as="geometry" />
        </mxCell>
        <mxCell id="4HVdgIBvoIVfLKKro9Ar-18" value="" style="whiteSpace=wrap;html=1;aspect=fixed;" vertex="1" parent="1">
          <mxGeometry x="320" y="250" width="20" height="20" as="geometry" />
        </mxCell>
        <mxCell id="4HVdgIBvoIVfLKKro9Ar-19" value="" style="whiteSpace=wrap;html=1;aspect=fixed;" vertex="1" parent="1">
          <mxGeometry x="340" y="250" width="20" height="20" as="geometry" />
        </mxCell>
        <mxCell id="4HVdgIBvoIVfLKKro9Ar-20" value="" style="whiteSpace=wrap;html=1;aspect=fixed;" vertex="1" parent="1">
          <mxGeometry x="360" y="250" width="20" height="20" as="geometry" />
        </mxCell>
        <mxCell id="4HVdgIBvoIVfLKKro9Ar-21" value="" style="whiteSpace=wrap;html=1;aspect=fixed;" vertex="1" parent="1">
          <mxGeometry x="380" y="250" width="20" height="20" as="geometry" />
        </mxCell>
        <mxCell id="4HVdgIBvoIVfLKKro9Ar-22" value="" style="whiteSpace=wrap;html=1;aspect=fixed;" vertex="1" parent="1">
          <mxGeometry x="400" y="250" width="20" height="20" as="geometry" />
        </mxCell>
        <mxCell id="4HVdgIBvoIVfLKKro9Ar-23" value="" style="whiteSpace=wrap;html=1;aspect=fixed;" vertex="1" parent="1">
          <mxGeometry x="420" y="250" width="20" height="20" as="geometry" />
        </mxCell>
        <mxCell id="4HVdgIBvoIVfLKKro9Ar-24" value="" style="whiteSpace=wrap;html=1;aspect=fixed;" vertex="1" parent="1">
          <mxGeometry x="440" y="250" width="20" height="20" as="geometry" />
        </mxCell>
        <mxCell id="4HVdgIBvoIVfLKKro9Ar-25" value="" style="whiteSpace=wrap;html=1;aspect=fixed;" vertex="1" parent="1">
          <mxGeometry x="460" y="250" width="20" height="20" as="geometry" />
        </mxCell>
        <mxCell id="4HVdgIBvoIVfLKKro9Ar-26" value="" style="whiteSpace=wrap;html=1;aspect=fixed;" vertex="1" parent="1">
          <mxGeometry x="240" y="270" width="20" height="20" as="geometry" />
        </mxCell>
        <mxCell id="4HVdgIBvoIVfLKKro9Ar-27" value="" style="whiteSpace=wrap;html=1;aspect=fixed;" vertex="1" parent="1">
          <mxGeometry x="260" y="270" width="20" height="20" as="geometry" />
        </mxCell>
        <mxCell id="4HVdgIBvoIVfLKKro9Ar-28" value="" style="whiteSpace=wrap;html=1;aspect=fixed;" vertex="1" parent="1">
          <mxGeometry x="280" y="270" width="20" height="20" as="geometry" />
        </mxCell>
        <mxCell id="4HVdgIBvoIVfLKKro9Ar-29" value="" style="whiteSpace=wrap;html=1;aspect=fixed;" vertex="1" parent="1">
          <mxGeometry x="300" y="270" width="20" height="20" as="geometry" />
        </mxCell>
        <mxCell id="4HVdgIBvoIVfLKKro9Ar-30" value="" style="whiteSpace=wrap;html=1;aspect=fixed;" vertex="1" parent="1">
          <mxGeometry x="320" y="270" width="20" height="20" as="geometry" />
        </mxCell>
        <mxCell id="4HVdgIBvoIVfLKKro9Ar-31" value="" style="whiteSpace=wrap;html=1;aspect=fixed;" vertex="1" parent="1">
          <mxGeometry x="340" y="270" width="20" height="20" as="geometry" />
        </mxCell>
        <mxCell id="4HVdgIBvoIVfLKKro9Ar-32" value="" style="whiteSpace=wrap;html=1;aspect=fixed;" vertex="1" parent="1">
          <mxGeometry x="360" y="270" width="20" height="20" as="geometry" />
        </mxCell>
        <mxCell id="4HVdgIBvoIVfLKKro9Ar-33" value="" style="whiteSpace=wrap;html=1;aspect=fixed;" vertex="1" parent="1">
          <mxGeometry x="380" y="270" width="20" height="20" as="geometry" />
        </mxCell>
        <mxCell id="4HVdgIBvoIVfLKKro9Ar-34" value="" style="whiteSpace=wrap;html=1;aspect=fixed;" vertex="1" parent="1">
          <mxGeometry x="400" y="270" width="20" height="20" as="geometry" />
        </mxCell>
        <mxCell id="4HVdgIBvoIVfLKKro9Ar-35" value="" style="whiteSpace=wrap;html=1;aspect=fixed;" vertex="1" parent="1">
          <mxGeometry x="420" y="270" width="20" height="20" as="geometry" />
        </mxCell>
        <mxCell id="4HVdgIBvoIVfLKKro9Ar-36" value="" style="whiteSpace=wrap;html=1;aspect=fixed;" vertex="1" parent="1">
          <mxGeometry x="440" y="270" width="20" height="20" as="geometry" />
        </mxCell>
        <mxCell id="4HVdgIBvoIVfLKKro9Ar-37" value="" style="whiteSpace=wrap;html=1;aspect=fixed;" vertex="1" parent="1">
          <mxGeometry x="460" y="270" width="20" height="20" as="geometry" />
        </mxCell>
        <mxCell id="4HVdgIBvoIVfLKKro9Ar-38" value="" style="whiteSpace=wrap;html=1;aspect=fixed;fillColor=#f8cecc;strokeColor=#b85450;" vertex="1" parent="1">
          <mxGeometry x="240" y="290" width="20" height="20" as="geometry" />
        </mxCell>
        <mxCell id="4HVdgIBvoIVfLKKro9Ar-39" value="" style="whiteSpace=wrap;html=1;aspect=fixed;fillColor=#f8cecc;strokeColor=#b85450;" vertex="1" parent="1">
          <mxGeometry x="260" y="290" width="20" height="20" as="geometry" />
        </mxCell>
        <mxCell id="4HVdgIBvoIVfLKKro9Ar-40" value="" style="whiteSpace=wrap;html=1;aspect=fixed;fillColor=#f8cecc;strokeColor=#b85450;" vertex="1" parent="1">
          <mxGeometry x="280" y="290" width="20" height="20" as="geometry" />
        </mxCell>
        <mxCell id="4HVdgIBvoIVfLKKro9Ar-41" value="" style="whiteSpace=wrap;html=1;aspect=fixed;fillColor=#f8cecc;strokeColor=#b85450;" vertex="1" parent="1">
          <mxGeometry x="300" y="290" width="20" height="20" as="geometry" />
        </mxCell>
        <mxCell id="4HVdgIBvoIVfLKKro9Ar-42" value="" style="whiteSpace=wrap;html=1;aspect=fixed;fillColor=#f8cecc;strokeColor=#b85450;" vertex="1" parent="1">
          <mxGeometry x="320" y="290" width="20" height="20" as="geometry" />
        </mxCell>
        <mxCell id="4HVdgIBvoIVfLKKro9Ar-43" value="" style="whiteSpace=wrap;html=1;aspect=fixed;fillColor=#f8cecc;strokeColor=#b85450;" vertex="1" parent="1">
          <mxGeometry x="340" y="290" width="20" height="20" as="geometry" />
        </mxCell>
        <mxCell id="4HVdgIBvoIVfLKKro9Ar-44" value="" style="whiteSpace=wrap;html=1;aspect=fixed;fillColor=#f8cecc;strokeColor=#b85450;" vertex="1" parent="1">
          <mxGeometry x="360" y="290" width="20" height="20" as="geometry" />
        </mxCell>
        <mxCell id="4HVdgIBvoIVfLKKro9Ar-45" value="" style="whiteSpace=wrap;html=1;aspect=fixed;fillColor=#f8cecc;strokeColor=#b85450;" vertex="1" parent="1">
          <mxGeometry x="380" y="290" width="20" height="20" as="geometry" />
        </mxCell>
        <mxCell id="4HVdgIBvoIVfLKKro9Ar-46" value="" style="whiteSpace=wrap;html=1;aspect=fixed;fillColor=#f8cecc;strokeColor=#b85450;" vertex="1" parent="1">
          <mxGeometry x="400" y="290" width="20" height="20" as="geometry" />
        </mxCell>
        <mxCell id="4HVdgIBvoIVfLKKro9Ar-47" value="" style="whiteSpace=wrap;html=1;aspect=fixed;fillColor=#f8cecc;strokeColor=#b85450;" vertex="1" parent="1">
          <mxGeometry x="420" y="290" width="20" height="20" as="geometry" />
        </mxCell>
        <mxCell id="4HVdgIBvoIVfLKKro9Ar-48" value="" style="whiteSpace=wrap;html=1;aspect=fixed;fillColor=#f8cecc;strokeColor=#b85450;" vertex="1" parent="1">
          <mxGeometry x="440" y="290" width="20" height="20" as="geometry" />
        </mxCell>
        <mxCell id="4HVdgIBvoIVfLKKro9Ar-49" value="" style="whiteSpace=wrap;html=1;aspect=fixed;fillColor=#f8cecc;strokeColor=#b85450;" vertex="1" parent="1">
          <mxGeometry x="460" y="290" width="20" height="20" as="geometry" />
        </mxCell>
        <mxCell id="4HVdgIBvoIVfLKKro9Ar-50" value="" style="whiteSpace=wrap;html=1;aspect=fixed;fillColor=#f8cecc;strokeColor=#b85450;" vertex="1" parent="1">
          <mxGeometry x="240" y="330" width="20" height="20" as="geometry" />
        </mxCell>
        <mxCell id="4HVdgIBvoIVfLKKro9Ar-51" value="" style="whiteSpace=wrap;html=1;aspect=fixed;fillColor=#f8cecc;strokeColor=#b85450;" vertex="1" parent="1">
          <mxGeometry x="260" y="330" width="20" height="20" as="geometry" />
        </mxCell>
        <mxCell id="4HVdgIBvoIVfLKKro9Ar-52" value="" style="whiteSpace=wrap;html=1;aspect=fixed;fillColor=#f8cecc;strokeColor=#b85450;" vertex="1" parent="1">
          <mxGeometry x="280" y="330" width="20" height="20" as="geometry" />
        </mxCell>
        <mxCell id="4HVdgIBvoIVfLKKro9Ar-53" value="" style="whiteSpace=wrap;html=1;aspect=fixed;fillColor=#f8cecc;strokeColor=#b85450;" vertex="1" parent="1">
          <mxGeometry x="300" y="330" width="20" height="20" as="geometry" />
        </mxCell>
        <mxCell id="4HVdgIBvoIVfLKKro9Ar-54" value="" style="whiteSpace=wrap;html=1;aspect=fixed;fillColor=#f8cecc;strokeColor=#b85450;" vertex="1" parent="1">
          <mxGeometry x="320" y="330" width="20" height="20" as="geometry" />
        </mxCell>
        <mxCell id="4HVdgIBvoIVfLKKro9Ar-55" value="" style="whiteSpace=wrap;html=1;aspect=fixed;fillColor=#f8cecc;strokeColor=#b85450;" vertex="1" parent="1">
          <mxGeometry x="340" y="330" width="20" height="20" as="geometry" />
        </mxCell>
        <mxCell id="4HVdgIBvoIVfLKKro9Ar-56" value="" style="whiteSpace=wrap;html=1;aspect=fixed;fillColor=#f8cecc;strokeColor=#b85450;" vertex="1" parent="1">
          <mxGeometry x="360" y="330" width="20" height="20" as="geometry" />
        </mxCell>
        <mxCell id="4HVdgIBvoIVfLKKro9Ar-57" value="" style="whiteSpace=wrap;html=1;aspect=fixed;fillColor=#f8cecc;strokeColor=#b85450;" vertex="1" parent="1">
          <mxGeometry x="380" y="330" width="20" height="20" as="geometry" />
        </mxCell>
        <mxCell id="4HVdgIBvoIVfLKKro9Ar-58" value="" style="whiteSpace=wrap;html=1;aspect=fixed;fillColor=#f8cecc;strokeColor=#b85450;" vertex="1" parent="1">
          <mxGeometry x="400" y="330" width="20" height="20" as="geometry" />
        </mxCell>
        <mxCell id="4HVdgIBvoIVfLKKro9Ar-59" value="" style="whiteSpace=wrap;html=1;aspect=fixed;fillColor=#f8cecc;strokeColor=#b85450;" vertex="1" parent="1">
          <mxGeometry x="420" y="330" width="20" height="20" as="geometry" />
        </mxCell>
        <mxCell id="4HVdgIBvoIVfLKKro9Ar-60" value="" style="whiteSpace=wrap;html=1;aspect=fixed;fillColor=#f8cecc;strokeColor=#b85450;" vertex="1" parent="1">
          <mxGeometry x="440" y="330" width="20" height="20" as="geometry" />
        </mxCell>
        <mxCell id="4HVdgIBvoIVfLKKro9Ar-61" value="" style="whiteSpace=wrap;html=1;aspect=fixed;fillColor=#f8cecc;strokeColor=#b85450;" vertex="1" parent="1">
          <mxGeometry x="460" y="330" width="20" height="20" as="geometry" />
        </mxCell>
        <mxCell id="4HVdgIBvoIVfLKKro9Ar-62" value="" style="whiteSpace=wrap;html=1;aspect=fixed;" vertex="1" parent="1">
          <mxGeometry x="240" y="350" width="20" height="20" as="geometry" />
        </mxCell>
        <mxCell id="4HVdgIBvoIVfLKKro9Ar-63" value="" style="whiteSpace=wrap;html=1;aspect=fixed;" vertex="1" parent="1">
          <mxGeometry x="260" y="350" width="20" height="20" as="geometry" />
        </mxCell>
        <mxCell id="4HVdgIBvoIVfLKKro9Ar-64" value="" style="whiteSpace=wrap;html=1;aspect=fixed;" vertex="1" parent="1">
          <mxGeometry x="280" y="350" width="20" height="20" as="geometry" />
        </mxCell>
        <mxCell id="4HVdgIBvoIVfLKKro9Ar-65" value="" style="whiteSpace=wrap;html=1;aspect=fixed;" vertex="1" parent="1">
          <mxGeometry x="300" y="350" width="20" height="20" as="geometry" />
        </mxCell>
        <mxCell id="4HVdgIBvoIVfLKKro9Ar-66" value="" style="whiteSpace=wrap;html=1;aspect=fixed;" vertex="1" parent="1">
          <mxGeometry x="320" y="350" width="20" height="20" as="geometry" />
        </mxCell>
        <mxCell id="4HVdgIBvoIVfLKKro9Ar-67" value="" style="whiteSpace=wrap;html=1;aspect=fixed;" vertex="1" parent="1">
          <mxGeometry x="340" y="350" width="20" height="20" as="geometry" />
        </mxCell>
        <mxCell id="4HVdgIBvoIVfLKKro9Ar-68" value="" style="whiteSpace=wrap;html=1;aspect=fixed;" vertex="1" parent="1">
          <mxGeometry x="360" y="350" width="20" height="20" as="geometry" />
        </mxCell>
        <mxCell id="4HVdgIBvoIVfLKKro9Ar-69" value="" style="whiteSpace=wrap;html=1;aspect=fixed;" vertex="1" parent="1">
          <mxGeometry x="380" y="350" width="20" height="20" as="geometry" />
        </mxCell>
        <mxCell id="4HVdgIBvoIVfLKKro9Ar-70" value="" style="whiteSpace=wrap;html=1;aspect=fixed;" vertex="1" parent="1">
          <mxGeometry x="400" y="350" width="20" height="20" as="geometry" />
        </mxCell>
        <mxCell id="4HVdgIBvoIVfLKKro9Ar-71" value="" style="whiteSpace=wrap;html=1;aspect=fixed;" vertex="1" parent="1">
          <mxGeometry x="420" y="350" width="20" height="20" as="geometry" />
        </mxCell>
        <mxCell id="4HVdgIBvoIVfLKKro9Ar-72" value="" style="whiteSpace=wrap;html=1;aspect=fixed;" vertex="1" parent="1">
          <mxGeometry x="440" y="350" width="20" height="20" as="geometry" />
        </mxCell>
        <mxCell id="4HVdgIBvoIVfLKKro9Ar-73" value="" style="whiteSpace=wrap;html=1;aspect=fixed;" vertex="1" parent="1">
          <mxGeometry x="460" y="350" width="20" height="20" as="geometry" />
        </mxCell>
        <mxCell id="4HVdgIBvoIVfLKKro9Ar-74" value="" style="whiteSpace=wrap;html=1;aspect=fixed;" vertex="1" parent="1">
          <mxGeometry x="240" y="370" width="20" height="20" as="geometry" />
        </mxCell>
        <mxCell id="4HVdgIBvoIVfLKKro9Ar-75" value="" style="whiteSpace=wrap;html=1;aspect=fixed;" vertex="1" parent="1">
          <mxGeometry x="260" y="370" width="20" height="20" as="geometry" />
        </mxCell>
        <mxCell id="4HVdgIBvoIVfLKKro9Ar-76" value="" style="whiteSpace=wrap;html=1;aspect=fixed;" vertex="1" parent="1">
          <mxGeometry x="280" y="370" width="20" height="20" as="geometry" />
        </mxCell>
        <mxCell id="4HVdgIBvoIVfLKKro9Ar-77" value="" style="whiteSpace=wrap;html=1;aspect=fixed;" vertex="1" parent="1">
          <mxGeometry x="300" y="370" width="20" height="20" as="geometry" />
        </mxCell>
        <mxCell id="4HVdgIBvoIVfLKKro9Ar-78" value="" style="whiteSpace=wrap;html=1;aspect=fixed;" vertex="1" parent="1">
          <mxGeometry x="320" y="370" width="20" height="20" as="geometry" />
        </mxCell>
        <mxCell id="4HVdgIBvoIVfLKKro9Ar-79" value="" style="whiteSpace=wrap;html=1;aspect=fixed;" vertex="1" parent="1">
          <mxGeometry x="340" y="370" width="20" height="20" as="geometry" />
        </mxCell>
        <mxCell id="4HVdgIBvoIVfLKKro9Ar-80" value="" style="whiteSpace=wrap;html=1;aspect=fixed;" vertex="1" parent="1">
          <mxGeometry x="360" y="370" width="20" height="20" as="geometry" />
        </mxCell>
        <mxCell id="4HVdgIBvoIVfLKKro9Ar-81" value="" style="whiteSpace=wrap;html=1;aspect=fixed;" vertex="1" parent="1">
          <mxGeometry x="380" y="370" width="20" height="20" as="geometry" />
        </mxCell>
        <mxCell id="4HVdgIBvoIVfLKKro9Ar-82" value="" style="whiteSpace=wrap;html=1;aspect=fixed;" vertex="1" parent="1">
          <mxGeometry x="400" y="370" width="20" height="20" as="geometry" />
        </mxCell>
        <mxCell id="4HVdgIBvoIVfLKKro9Ar-83" value="" style="whiteSpace=wrap;html=1;aspect=fixed;" vertex="1" parent="1">
          <mxGeometry x="420" y="370" width="20" height="20" as="geometry" />
        </mxCell>
        <mxCell id="4HVdgIBvoIVfLKKro9Ar-84" value="" style="whiteSpace=wrap;html=1;aspect=fixed;" vertex="1" parent="1">
          <mxGeometry x="440" y="370" width="20" height="20" as="geometry" />
        </mxCell>
        <mxCell id="4HVdgIBvoIVfLKKro9Ar-85" value="" style="whiteSpace=wrap;html=1;aspect=fixed;" vertex="1" parent="1">
          <mxGeometry x="460" y="370" width="20" height="20" as="geometry" />
        </mxCell>
        <mxCell id="4HVdgIBvoIVfLKKro9Ar-86" value="" style="whiteSpace=wrap;html=1;aspect=fixed;fillColor=#f8cecc;strokeColor=#b85450;" vertex="1" parent="1">
          <mxGeometry x="240" y="390" width="20" height="20" as="geometry" />
        </mxCell>
        <mxCell id="4HVdgIBvoIVfLKKro9Ar-87" value="" style="whiteSpace=wrap;html=1;aspect=fixed;fillColor=#f8cecc;strokeColor=#b85450;" vertex="1" parent="1">
          <mxGeometry x="260" y="390" width="20" height="20" as="geometry" />
        </mxCell>
        <mxCell id="4HVdgIBvoIVfLKKro9Ar-88" value="" style="whiteSpace=wrap;html=1;aspect=fixed;fillColor=#f8cecc;strokeColor=#b85450;" vertex="1" parent="1">
          <mxGeometry x="280" y="390" width="20" height="20" as="geometry" />
        </mxCell>
        <mxCell id="4HVdgIBvoIVfLKKro9Ar-89" value="" style="whiteSpace=wrap;html=1;aspect=fixed;fillColor=#f8cecc;strokeColor=#b85450;" vertex="1" parent="1">
          <mxGeometry x="300" y="390" width="20" height="20" as="geometry" />
        </mxCell>
        <mxCell id="4HVdgIBvoIVfLKKro9Ar-90" value="" style="whiteSpace=wrap;html=1;aspect=fixed;fillColor=#f8cecc;strokeColor=#b85450;" vertex="1" parent="1">
          <mxGeometry x="320" y="390" width="20" height="20" as="geometry" />
        </mxCell>
        <mxCell id="4HVdgIBvoIVfLKKro9Ar-91" value="" style="whiteSpace=wrap;html=1;aspect=fixed;fillColor=#f8cecc;strokeColor=#b85450;" vertex="1" parent="1">
          <mxGeometry x="340" y="390" width="20" height="20" as="geometry" />
        </mxCell>
        <mxCell id="4HVdgIBvoIVfLKKro9Ar-92" value="" style="whiteSpace=wrap;html=1;aspect=fixed;fillColor=#f8cecc;strokeColor=#b85450;" vertex="1" parent="1">
          <mxGeometry x="360" y="390" width="20" height="20" as="geometry" />
        </mxCell>
        <mxCell id="4HVdgIBvoIVfLKKro9Ar-93" value="" style="whiteSpace=wrap;html=1;aspect=fixed;fillColor=#f8cecc;strokeColor=#b85450;" vertex="1" parent="1">
          <mxGeometry x="380" y="390" width="20" height="20" as="geometry" />
        </mxCell>
        <mxCell id="4HVdgIBvoIVfLKKro9Ar-94" value="" style="whiteSpace=wrap;html=1;aspect=fixed;fillColor=#f8cecc;strokeColor=#b85450;" vertex="1" parent="1">
          <mxGeometry x="400" y="390" width="20" height="20" as="geometry" />
        </mxCell>
        <mxCell id="4HVdgIBvoIVfLKKro9Ar-95" value="" style="whiteSpace=wrap;html=1;aspect=fixed;fillColor=#f8cecc;strokeColor=#b85450;" vertex="1" parent="1">
          <mxGeometry x="420" y="390" width="20" height="20" as="geometry" />
        </mxCell>
        <mxCell id="4HVdgIBvoIVfLKKro9Ar-96" value="" style="whiteSpace=wrap;html=1;aspect=fixed;fillColor=#f8cecc;strokeColor=#b85450;" vertex="1" parent="1">
          <mxGeometry x="440" y="390" width="20" height="20" as="geometry" />
        </mxCell>
        <mxCell id="4HVdgIBvoIVfLKKro9Ar-97" value="" style="whiteSpace=wrap;html=1;aspect=fixed;fillColor=#f8cecc;strokeColor=#b85450;" vertex="1" parent="1">
          <mxGeometry x="460" y="390" width="20" height="20" as="geometry" />
        </mxCell>
        <mxCell id="4HVdgIBvoIVfLKKro9Ar-98" value="" style="whiteSpace=wrap;html=1;aspect=fixed;fillColor=#f8cecc;strokeColor=#b85450;" vertex="1" parent="1">
          <mxGeometry x="240" y="430" width="20" height="20" as="geometry" />
        </mxCell>
        <mxCell id="4HVdgIBvoIVfLKKro9Ar-99" value="" style="whiteSpace=wrap;html=1;aspect=fixed;fillColor=#f8cecc;strokeColor=#b85450;" vertex="1" parent="1">
          <mxGeometry x="260" y="430" width="20" height="20" as="geometry" />
        </mxCell>
        <mxCell id="4HVdgIBvoIVfLKKro9Ar-100" value="" style="whiteSpace=wrap;html=1;aspect=fixed;fillColor=#f8cecc;strokeColor=#b85450;" vertex="1" parent="1">
          <mxGeometry x="280" y="430" width="20" height="20" as="geometry" />
        </mxCell>
        <mxCell id="4HVdgIBvoIVfLKKro9Ar-101" value="" style="whiteSpace=wrap;html=1;aspect=fixed;fillColor=#f8cecc;strokeColor=#b85450;" vertex="1" parent="1">
          <mxGeometry x="300" y="430" width="20" height="20" as="geometry" />
        </mxCell>
        <mxCell id="4HVdgIBvoIVfLKKro9Ar-102" value="" style="whiteSpace=wrap;html=1;aspect=fixed;fillColor=#f8cecc;strokeColor=#b85450;" vertex="1" parent="1">
          <mxGeometry x="320" y="430" width="20" height="20" as="geometry" />
        </mxCell>
        <mxCell id="4HVdgIBvoIVfLKKro9Ar-103" value="" style="whiteSpace=wrap;html=1;aspect=fixed;fillColor=#f8cecc;strokeColor=#b85450;" vertex="1" parent="1">
          <mxGeometry x="340" y="430" width="20" height="20" as="geometry" />
        </mxCell>
        <mxCell id="4HVdgIBvoIVfLKKro9Ar-104" value="" style="whiteSpace=wrap;html=1;aspect=fixed;fillColor=#f8cecc;strokeColor=#b85450;" vertex="1" parent="1">
          <mxGeometry x="360" y="430" width="20" height="20" as="geometry" />
        </mxCell>
        <mxCell id="4HVdgIBvoIVfLKKro9Ar-105" value="" style="whiteSpace=wrap;html=1;aspect=fixed;fillColor=#f8cecc;strokeColor=#b85450;" vertex="1" parent="1">
          <mxGeometry x="380" y="430" width="20" height="20" as="geometry" />
        </mxCell>
        <mxCell id="4HVdgIBvoIVfLKKro9Ar-106" value="" style="whiteSpace=wrap;html=1;aspect=fixed;fillColor=#f8cecc;strokeColor=#b85450;" vertex="1" parent="1">
          <mxGeometry x="400" y="430" width="20" height="20" as="geometry" />
        </mxCell>
        <mxCell id="4HVdgIBvoIVfLKKro9Ar-107" value="" style="whiteSpace=wrap;html=1;aspect=fixed;fillColor=#f8cecc;strokeColor=#b85450;" vertex="1" parent="1">
          <mxGeometry x="420" y="430" width="20" height="20" as="geometry" />
        </mxCell>
        <mxCell id="4HVdgIBvoIVfLKKro9Ar-108" value="" style="whiteSpace=wrap;html=1;aspect=fixed;fillColor=#f8cecc;strokeColor=#b85450;" vertex="1" parent="1">
          <mxGeometry x="440" y="430" width="20" height="20" as="geometry" />
        </mxCell>
        <mxCell id="4HVdgIBvoIVfLKKro9Ar-109" value="" style="whiteSpace=wrap;html=1;aspect=fixed;fillColor=#f8cecc;strokeColor=#b85450;" vertex="1" parent="1">
          <mxGeometry x="460" y="430" width="20" height="20" as="geometry" />
        </mxCell>
        <mxCell id="4HVdgIBvoIVfLKKro9Ar-110" value="" style="whiteSpace=wrap;html=1;aspect=fixed;" vertex="1" parent="1">
          <mxGeometry x="240" y="450" width="20" height="20" as="geometry" />
        </mxCell>
        <mxCell id="4HVdgIBvoIVfLKKro9Ar-111" value="" style="whiteSpace=wrap;html=1;aspect=fixed;" vertex="1" parent="1">
          <mxGeometry x="260" y="450" width="20" height="20" as="geometry" />
        </mxCell>
        <mxCell id="4HVdgIBvoIVfLKKro9Ar-112" value="" style="whiteSpace=wrap;html=1;aspect=fixed;" vertex="1" parent="1">
          <mxGeometry x="280" y="450" width="20" height="20" as="geometry" />
        </mxCell>
        <mxCell id="4HVdgIBvoIVfLKKro9Ar-113" value="" style="whiteSpace=wrap;html=1;aspect=fixed;" vertex="1" parent="1">
          <mxGeometry x="300" y="450" width="20" height="20" as="geometry" />
        </mxCell>
        <mxCell id="4HVdgIBvoIVfLKKro9Ar-114" value="" style="whiteSpace=wrap;html=1;aspect=fixed;" vertex="1" parent="1">
          <mxGeometry x="320" y="450" width="20" height="20" as="geometry" />
        </mxCell>
        <mxCell id="4HVdgIBvoIVfLKKro9Ar-115" value="" style="whiteSpace=wrap;html=1;aspect=fixed;" vertex="1" parent="1">
          <mxGeometry x="340" y="450" width="20" height="20" as="geometry" />
        </mxCell>
        <mxCell id="4HVdgIBvoIVfLKKro9Ar-116" value="" style="whiteSpace=wrap;html=1;aspect=fixed;" vertex="1" parent="1">
          <mxGeometry x="360" y="450" width="20" height="20" as="geometry" />
        </mxCell>
        <mxCell id="4HVdgIBvoIVfLKKro9Ar-117" value="" style="whiteSpace=wrap;html=1;aspect=fixed;" vertex="1" parent="1">
          <mxGeometry x="380" y="450" width="20" height="20" as="geometry" />
        </mxCell>
        <mxCell id="4HVdgIBvoIVfLKKro9Ar-118" value="" style="whiteSpace=wrap;html=1;aspect=fixed;" vertex="1" parent="1">
          <mxGeometry x="400" y="450" width="20" height="20" as="geometry" />
        </mxCell>
        <mxCell id="4HVdgIBvoIVfLKKro9Ar-119" value="" style="whiteSpace=wrap;html=1;aspect=fixed;" vertex="1" parent="1">
          <mxGeometry x="420" y="450" width="20" height="20" as="geometry" />
        </mxCell>
        <mxCell id="4HVdgIBvoIVfLKKro9Ar-120" value="" style="whiteSpace=wrap;html=1;aspect=fixed;" vertex="1" parent="1">
          <mxGeometry x="440" y="450" width="20" height="20" as="geometry" />
        </mxCell>
        <mxCell id="4HVdgIBvoIVfLKKro9Ar-121" value="" style="whiteSpace=wrap;html=1;aspect=fixed;" vertex="1" parent="1">
          <mxGeometry x="460" y="450" width="20" height="20" as="geometry" />
        </mxCell>
        <mxCell id="4HVdgIBvoIVfLKKro9Ar-122" value="" style="whiteSpace=wrap;html=1;aspect=fixed;" vertex="1" parent="1">
          <mxGeometry x="240" y="470" width="20" height="20" as="geometry" />
        </mxCell>
        <mxCell id="4HVdgIBvoIVfLKKro9Ar-123" value="" style="whiteSpace=wrap;html=1;aspect=fixed;" vertex="1" parent="1">
          <mxGeometry x="260" y="470" width="20" height="20" as="geometry" />
        </mxCell>
        <mxCell id="4HVdgIBvoIVfLKKro9Ar-124" value="" style="whiteSpace=wrap;html=1;aspect=fixed;" vertex="1" parent="1">
          <mxGeometry x="280" y="470" width="20" height="20" as="geometry" />
        </mxCell>
        <mxCell id="4HVdgIBvoIVfLKKro9Ar-125" value="" style="whiteSpace=wrap;html=1;aspect=fixed;" vertex="1" parent="1">
          <mxGeometry x="300" y="470" width="20" height="20" as="geometry" />
        </mxCell>
        <mxCell id="4HVdgIBvoIVfLKKro9Ar-126" value="" style="whiteSpace=wrap;html=1;aspect=fixed;" vertex="1" parent="1">
          <mxGeometry x="320" y="470" width="20" height="20" as="geometry" />
        </mxCell>
        <mxCell id="4HVdgIBvoIVfLKKro9Ar-127" value="" style="whiteSpace=wrap;html=1;aspect=fixed;" vertex="1" parent="1">
          <mxGeometry x="340" y="470" width="20" height="20" as="geometry" />
        </mxCell>
        <mxCell id="4HVdgIBvoIVfLKKro9Ar-128" value="" style="whiteSpace=wrap;html=1;aspect=fixed;" vertex="1" parent="1">
          <mxGeometry x="360" y="470" width="20" height="20" as="geometry" />
        </mxCell>
        <mxCell id="4HVdgIBvoIVfLKKro9Ar-129" value="" style="whiteSpace=wrap;html=1;aspect=fixed;" vertex="1" parent="1">
          <mxGeometry x="380" y="470" width="20" height="20" as="geometry" />
        </mxCell>
        <mxCell id="4HVdgIBvoIVfLKKro9Ar-130" value="" style="whiteSpace=wrap;html=1;aspect=fixed;" vertex="1" parent="1">
          <mxGeometry x="400" y="470" width="20" height="20" as="geometry" />
        </mxCell>
        <mxCell id="4HVdgIBvoIVfLKKro9Ar-131" value="" style="whiteSpace=wrap;html=1;aspect=fixed;" vertex="1" parent="1">
          <mxGeometry x="420" y="470" width="20" height="20" as="geometry" />
        </mxCell>
        <mxCell id="4HVdgIBvoIVfLKKro9Ar-132" value="" style="whiteSpace=wrap;html=1;aspect=fixed;" vertex="1" parent="1">
          <mxGeometry x="440" y="470" width="20" height="20" as="geometry" />
        </mxCell>
        <mxCell id="4HVdgIBvoIVfLKKro9Ar-133" value="" style="whiteSpace=wrap;html=1;aspect=fixed;" vertex="1" parent="1">
          <mxGeometry x="460" y="470" width="20" height="20" as="geometry" />
        </mxCell>
        <mxCell id="4HVdgIBvoIVfLKKro9Ar-134" value="" style="whiteSpace=wrap;html=1;aspect=fixed;fillColor=#f8cecc;strokeColor=#b85450;" vertex="1" parent="1">
          <mxGeometry x="240" y="490" width="20" height="20" as="geometry" />
        </mxCell>
        <mxCell id="4HVdgIBvoIVfLKKro9Ar-135" value="" style="whiteSpace=wrap;html=1;aspect=fixed;fillColor=#f8cecc;strokeColor=#b85450;" vertex="1" parent="1">
          <mxGeometry x="260" y="490" width="20" height="20" as="geometry" />
        </mxCell>
        <mxCell id="4HVdgIBvoIVfLKKro9Ar-136" value="" style="whiteSpace=wrap;html=1;aspect=fixed;fillColor=#f8cecc;strokeColor=#b85450;" vertex="1" parent="1">
          <mxGeometry x="280" y="490" width="20" height="20" as="geometry" />
        </mxCell>
        <mxCell id="4HVdgIBvoIVfLKKro9Ar-137" value="" style="whiteSpace=wrap;html=1;aspect=fixed;fillColor=#f8cecc;strokeColor=#b85450;" vertex="1" parent="1">
          <mxGeometry x="300" y="490" width="20" height="20" as="geometry" />
        </mxCell>
        <mxCell id="4HVdgIBvoIVfLKKro9Ar-138" value="" style="whiteSpace=wrap;html=1;aspect=fixed;fillColor=#f8cecc;strokeColor=#b85450;" vertex="1" parent="1">
          <mxGeometry x="320" y="490" width="20" height="20" as="geometry" />
        </mxCell>
        <mxCell id="4HVdgIBvoIVfLKKro9Ar-139" value="" style="whiteSpace=wrap;html=1;aspect=fixed;fillColor=#f8cecc;strokeColor=#b85450;" vertex="1" parent="1">
          <mxGeometry x="340" y="490" width="20" height="20" as="geometry" />
        </mxCell>
        <mxCell id="4HVdgIBvoIVfLKKro9Ar-140" value="" style="whiteSpace=wrap;html=1;aspect=fixed;fillColor=#f8cecc;strokeColor=#b85450;" vertex="1" parent="1">
          <mxGeometry x="360" y="490" width="20" height="20" as="geometry" />
        </mxCell>
        <mxCell id="4HVdgIBvoIVfLKKro9Ar-141" value="" style="whiteSpace=wrap;html=1;aspect=fixed;fillColor=#f8cecc;strokeColor=#b85450;" vertex="1" parent="1">
          <mxGeometry x="380" y="490" width="20" height="20" as="geometry" />
        </mxCell>
        <mxCell id="4HVdgIBvoIVfLKKro9Ar-142" value="" style="whiteSpace=wrap;html=1;aspect=fixed;fillColor=#f8cecc;strokeColor=#b85450;" vertex="1" parent="1">
          <mxGeometry x="400" y="490" width="20" height="20" as="geometry" />
        </mxCell>
        <mxCell id="4HVdgIBvoIVfLKKro9Ar-143" value="" style="whiteSpace=wrap;html=1;aspect=fixed;fillColor=#f8cecc;strokeColor=#b85450;" vertex="1" parent="1">
          <mxGeometry x="420" y="490" width="20" height="20" as="geometry" />
        </mxCell>
        <mxCell id="4HVdgIBvoIVfLKKro9Ar-144" value="" style="whiteSpace=wrap;html=1;aspect=fixed;fillColor=#f8cecc;strokeColor=#b85450;" vertex="1" parent="1">
          <mxGeometry x="440" y="490" width="20" height="20" as="geometry" />
        </mxCell>
        <mxCell id="4HVdgIBvoIVfLKKro9Ar-145" value="" style="whiteSpace=wrap;html=1;aspect=fixed;fillColor=#f8cecc;strokeColor=#b85450;" vertex="1" parent="1">
          <mxGeometry x="460" y="490" width="20" height="20" as="geometry" />
        </mxCell>
        <mxCell id="4HVdgIBvoIVfLKKro9Ar-146" value="" style="whiteSpace=wrap;html=1;aspect=fixed;" vertex="1" parent="1">
          <mxGeometry x="480" y="230" width="20" height="20" as="geometry" />
        </mxCell>
        <mxCell id="4HVdgIBvoIVfLKKro9Ar-147" value="" style="whiteSpace=wrap;html=1;aspect=fixed;" vertex="1" parent="1">
          <mxGeometry x="500" y="230" width="20" height="20" as="geometry" />
        </mxCell>
        <mxCell id="4HVdgIBvoIVfLKKro9Ar-148" value="" style="whiteSpace=wrap;html=1;aspect=fixed;" vertex="1" parent="1">
          <mxGeometry x="520" y="230" width="20" height="20" as="geometry" />
        </mxCell>
        <mxCell id="4HVdgIBvoIVfLKKro9Ar-149" value="" style="whiteSpace=wrap;html=1;aspect=fixed;" vertex="1" parent="1">
          <mxGeometry x="540" y="230" width="20" height="20" as="geometry" />
        </mxCell>
        <mxCell id="4HVdgIBvoIVfLKKro9Ar-150" value="" style="whiteSpace=wrap;html=1;aspect=fixed;" vertex="1" parent="1">
          <mxGeometry x="480" y="250" width="20" height="20" as="geometry" />
        </mxCell>
        <mxCell id="4HVdgIBvoIVfLKKro9Ar-151" value="" style="whiteSpace=wrap;html=1;aspect=fixed;" vertex="1" parent="1">
          <mxGeometry x="500" y="250" width="20" height="20" as="geometry" />
        </mxCell>
        <mxCell id="4HVdgIBvoIVfLKKro9Ar-152" value="" style="whiteSpace=wrap;html=1;aspect=fixed;" vertex="1" parent="1">
          <mxGeometry x="520" y="250" width="20" height="20" as="geometry" />
        </mxCell>
        <mxCell id="4HVdgIBvoIVfLKKro9Ar-153" value="" style="whiteSpace=wrap;html=1;aspect=fixed;" vertex="1" parent="1">
          <mxGeometry x="540" y="250" width="20" height="20" as="geometry" />
        </mxCell>
        <mxCell id="4HVdgIBvoIVfLKKro9Ar-154" value="" style="whiteSpace=wrap;html=1;aspect=fixed;" vertex="1" parent="1">
          <mxGeometry x="480" y="270" width="20" height="20" as="geometry" />
        </mxCell>
        <mxCell id="4HVdgIBvoIVfLKKro9Ar-155" value="" style="whiteSpace=wrap;html=1;aspect=fixed;" vertex="1" parent="1">
          <mxGeometry x="500" y="270" width="20" height="20" as="geometry" />
        </mxCell>
        <mxCell id="4HVdgIBvoIVfLKKro9Ar-156" value="" style="whiteSpace=wrap;html=1;aspect=fixed;" vertex="1" parent="1">
          <mxGeometry x="520" y="270" width="20" height="20" as="geometry" />
        </mxCell>
        <mxCell id="4HVdgIBvoIVfLKKro9Ar-157" value="" style="whiteSpace=wrap;html=1;aspect=fixed;" vertex="1" parent="1">
          <mxGeometry x="540" y="270" width="20" height="20" as="geometry" />
        </mxCell>
        <mxCell id="4HVdgIBvoIVfLKKro9Ar-158" value="" style="whiteSpace=wrap;html=1;aspect=fixed;fillColor=#f8cecc;strokeColor=#b85450;" vertex="1" parent="1">
          <mxGeometry x="480" y="290" width="20" height="20" as="geometry" />
        </mxCell>
        <mxCell id="4HVdgIBvoIVfLKKro9Ar-159" value="" style="whiteSpace=wrap;html=1;aspect=fixed;fillColor=#f8cecc;strokeColor=#b85450;" vertex="1" parent="1">
          <mxGeometry x="500" y="290" width="20" height="20" as="geometry" />
        </mxCell>
        <mxCell id="4HVdgIBvoIVfLKKro9Ar-160" value="" style="whiteSpace=wrap;html=1;aspect=fixed;fillColor=#f8cecc;strokeColor=#b85450;" vertex="1" parent="1">
          <mxGeometry x="520" y="290" width="20" height="20" as="geometry" />
        </mxCell>
        <mxCell id="4HVdgIBvoIVfLKKro9Ar-161" value="" style="whiteSpace=wrap;html=1;aspect=fixed;fillColor=#f8cecc;strokeColor=#b85450;" vertex="1" parent="1">
          <mxGeometry x="540" y="290" width="20" height="20" as="geometry" />
        </mxCell>
        <mxCell id="4HVdgIBvoIVfLKKro9Ar-162" value="" style="whiteSpace=wrap;html=1;aspect=fixed;fillColor=#f8cecc;strokeColor=#b85450;" vertex="1" parent="1">
          <mxGeometry x="480" y="330" width="20" height="20" as="geometry" />
        </mxCell>
        <mxCell id="4HVdgIBvoIVfLKKro9Ar-163" value="" style="whiteSpace=wrap;html=1;aspect=fixed;fillColor=#f8cecc;strokeColor=#b85450;" vertex="1" parent="1">
          <mxGeometry x="500" y="330" width="20" height="20" as="geometry" />
        </mxCell>
        <mxCell id="4HVdgIBvoIVfLKKro9Ar-164" value="" style="whiteSpace=wrap;html=1;aspect=fixed;fillColor=#f8cecc;strokeColor=#b85450;" vertex="1" parent="1">
          <mxGeometry x="520" y="330" width="20" height="20" as="geometry" />
        </mxCell>
        <mxCell id="4HVdgIBvoIVfLKKro9Ar-165" value="" style="whiteSpace=wrap;html=1;aspect=fixed;fillColor=#f8cecc;strokeColor=#b85450;" vertex="1" parent="1">
          <mxGeometry x="540" y="330" width="20" height="20" as="geometry" />
        </mxCell>
        <mxCell id="4HVdgIBvoIVfLKKro9Ar-166" value="" style="whiteSpace=wrap;html=1;aspect=fixed;" vertex="1" parent="1">
          <mxGeometry x="480" y="350" width="20" height="20" as="geometry" />
        </mxCell>
        <mxCell id="4HVdgIBvoIVfLKKro9Ar-167" value="" style="whiteSpace=wrap;html=1;aspect=fixed;" vertex="1" parent="1">
          <mxGeometry x="500" y="350" width="20" height="20" as="geometry" />
        </mxCell>
        <mxCell id="4HVdgIBvoIVfLKKro9Ar-168" value="" style="whiteSpace=wrap;html=1;aspect=fixed;" vertex="1" parent="1">
          <mxGeometry x="520" y="350" width="20" height="20" as="geometry" />
        </mxCell>
        <mxCell id="4HVdgIBvoIVfLKKro9Ar-169" value="" style="whiteSpace=wrap;html=1;aspect=fixed;" vertex="1" parent="1">
          <mxGeometry x="540" y="350" width="20" height="20" as="geometry" />
        </mxCell>
        <mxCell id="4HVdgIBvoIVfLKKro9Ar-170" value="" style="whiteSpace=wrap;html=1;aspect=fixed;" vertex="1" parent="1">
          <mxGeometry x="480" y="370" width="20" height="20" as="geometry" />
        </mxCell>
        <mxCell id="4HVdgIBvoIVfLKKro9Ar-171" value="" style="whiteSpace=wrap;html=1;aspect=fixed;" vertex="1" parent="1">
          <mxGeometry x="500" y="370" width="20" height="20" as="geometry" />
        </mxCell>
        <mxCell id="4HVdgIBvoIVfLKKro9Ar-172" value="" style="whiteSpace=wrap;html=1;aspect=fixed;" vertex="1" parent="1">
          <mxGeometry x="520" y="370" width="20" height="20" as="geometry" />
        </mxCell>
        <mxCell id="4HVdgIBvoIVfLKKro9Ar-173" value="" style="whiteSpace=wrap;html=1;aspect=fixed;" vertex="1" parent="1">
          <mxGeometry x="540" y="370" width="20" height="20" as="geometry" />
        </mxCell>
        <mxCell id="4HVdgIBvoIVfLKKro9Ar-174" value="" style="whiteSpace=wrap;html=1;aspect=fixed;fillColor=#f8cecc;strokeColor=#b85450;" vertex="1" parent="1">
          <mxGeometry x="480" y="390" width="20" height="20" as="geometry" />
        </mxCell>
        <mxCell id="4HVdgIBvoIVfLKKro9Ar-175" value="" style="whiteSpace=wrap;html=1;aspect=fixed;fillColor=#f8cecc;strokeColor=#b85450;" vertex="1" parent="1">
          <mxGeometry x="500" y="390" width="20" height="20" as="geometry" />
        </mxCell>
        <mxCell id="4HVdgIBvoIVfLKKro9Ar-176" value="" style="whiteSpace=wrap;html=1;aspect=fixed;fillColor=#f8cecc;strokeColor=#b85450;" vertex="1" parent="1">
          <mxGeometry x="520" y="390" width="20" height="20" as="geometry" />
        </mxCell>
        <mxCell id="4HVdgIBvoIVfLKKro9Ar-177" value="" style="whiteSpace=wrap;html=1;aspect=fixed;fillColor=#f8cecc;strokeColor=#b85450;" vertex="1" parent="1">
          <mxGeometry x="540" y="390" width="20" height="20" as="geometry" />
        </mxCell>
        <mxCell id="4HVdgIBvoIVfLKKro9Ar-178" value="" style="whiteSpace=wrap;html=1;aspect=fixed;fillColor=#f8cecc;strokeColor=#b85450;" vertex="1" parent="1">
          <mxGeometry x="480" y="430" width="20" height="20" as="geometry" />
        </mxCell>
        <mxCell id="4HVdgIBvoIVfLKKro9Ar-179" value="" style="whiteSpace=wrap;html=1;aspect=fixed;fillColor=#f8cecc;strokeColor=#b85450;" vertex="1" parent="1">
          <mxGeometry x="500" y="430" width="20" height="20" as="geometry" />
        </mxCell>
        <mxCell id="4HVdgIBvoIVfLKKro9Ar-180" value="" style="whiteSpace=wrap;html=1;aspect=fixed;fillColor=#f8cecc;strokeColor=#b85450;" vertex="1" parent="1">
          <mxGeometry x="520" y="430" width="20" height="20" as="geometry" />
        </mxCell>
        <mxCell id="4HVdgIBvoIVfLKKro9Ar-181" value="" style="whiteSpace=wrap;html=1;aspect=fixed;fillColor=#f8cecc;strokeColor=#b85450;" vertex="1" parent="1">
          <mxGeometry x="540" y="430" width="20" height="20" as="geometry" />
        </mxCell>
        <mxCell id="4HVdgIBvoIVfLKKro9Ar-182" value="" style="whiteSpace=wrap;html=1;aspect=fixed;" vertex="1" parent="1">
          <mxGeometry x="480" y="450" width="20" height="20" as="geometry" />
        </mxCell>
        <mxCell id="4HVdgIBvoIVfLKKro9Ar-183" value="" style="whiteSpace=wrap;html=1;aspect=fixed;" vertex="1" parent="1">
          <mxGeometry x="500" y="450" width="20" height="20" as="geometry" />
        </mxCell>
        <mxCell id="4HVdgIBvoIVfLKKro9Ar-184" value="" style="whiteSpace=wrap;html=1;aspect=fixed;" vertex="1" parent="1">
          <mxGeometry x="520" y="450" width="20" height="20" as="geometry" />
        </mxCell>
        <mxCell id="4HVdgIBvoIVfLKKro9Ar-185" value="" style="whiteSpace=wrap;html=1;aspect=fixed;" vertex="1" parent="1">
          <mxGeometry x="540" y="450" width="20" height="20" as="geometry" />
        </mxCell>
        <mxCell id="4HVdgIBvoIVfLKKro9Ar-186" value="" style="whiteSpace=wrap;html=1;aspect=fixed;" vertex="1" parent="1">
          <mxGeometry x="480" y="470" width="20" height="20" as="geometry" />
        </mxCell>
        <mxCell id="4HVdgIBvoIVfLKKro9Ar-187" value="" style="whiteSpace=wrap;html=1;aspect=fixed;" vertex="1" parent="1">
          <mxGeometry x="500" y="470" width="20" height="20" as="geometry" />
        </mxCell>
        <mxCell id="4HVdgIBvoIVfLKKro9Ar-188" value="" style="whiteSpace=wrap;html=1;aspect=fixed;" vertex="1" parent="1">
          <mxGeometry x="520" y="470" width="20" height="20" as="geometry" />
        </mxCell>
        <mxCell id="4HVdgIBvoIVfLKKro9Ar-189" value="" style="whiteSpace=wrap;html=1;aspect=fixed;" vertex="1" parent="1">
          <mxGeometry x="540" y="470" width="20" height="20" as="geometry" />
        </mxCell>
        <mxCell id="4HVdgIBvoIVfLKKro9Ar-190" value="" style="whiteSpace=wrap;html=1;aspect=fixed;fillColor=#f8cecc;strokeColor=#b85450;" vertex="1" parent="1">
          <mxGeometry x="480" y="490" width="20" height="20" as="geometry" />
        </mxCell>
        <mxCell id="4HVdgIBvoIVfLKKro9Ar-191" value="" style="whiteSpace=wrap;html=1;aspect=fixed;fillColor=#f8cecc;strokeColor=#b85450;" vertex="1" parent="1">
          <mxGeometry x="500" y="490" width="20" height="20" as="geometry" />
        </mxCell>
        <mxCell id="4HVdgIBvoIVfLKKro9Ar-192" value="" style="whiteSpace=wrap;html=1;aspect=fixed;fillColor=#f8cecc;strokeColor=#b85450;" vertex="1" parent="1">
          <mxGeometry x="520" y="490" width="20" height="20" as="geometry" />
        </mxCell>
        <mxCell id="4HVdgIBvoIVfLKKro9Ar-193" value="" style="whiteSpace=wrap;html=1;aspect=fixed;fillColor=#f8cecc;strokeColor=#b85450;" vertex="1" parent="1">
          <mxGeometry x="540" y="490" width="20" height="20" as="geometry" />
        </mxCell>
        <mxCell id="4HVdgIBvoIVfLKKro9Ar-194" value="" style="whiteSpace=wrap;html=1;aspect=fixed;fillColor=#f8cecc;strokeColor=#b85450;" vertex="1" parent="1">
          <mxGeometry x="240" y="530" width="20" height="20" as="geometry" />
        </mxCell>
        <mxCell id="4HVdgIBvoIVfLKKro9Ar-195" value="" style="whiteSpace=wrap;html=1;aspect=fixed;fillColor=#f8cecc;strokeColor=#b85450;" vertex="1" parent="1">
          <mxGeometry x="260" y="530" width="20" height="20" as="geometry" />
        </mxCell>
        <mxCell id="4HVdgIBvoIVfLKKro9Ar-196" value="" style="whiteSpace=wrap;html=1;aspect=fixed;fillColor=#f8cecc;strokeColor=#b85450;" vertex="1" parent="1">
          <mxGeometry x="280" y="530" width="20" height="20" as="geometry" />
        </mxCell>
        <mxCell id="4HVdgIBvoIVfLKKro9Ar-197" value="" style="whiteSpace=wrap;html=1;aspect=fixed;fillColor=#f8cecc;strokeColor=#b85450;" vertex="1" parent="1">
          <mxGeometry x="300" y="530" width="20" height="20" as="geometry" />
        </mxCell>
        <mxCell id="4HVdgIBvoIVfLKKro9Ar-198" value="" style="whiteSpace=wrap;html=1;aspect=fixed;fillColor=#f8cecc;strokeColor=#b85450;" vertex="1" parent="1">
          <mxGeometry x="320" y="530" width="20" height="20" as="geometry" />
        </mxCell>
        <mxCell id="4HVdgIBvoIVfLKKro9Ar-199" value="" style="whiteSpace=wrap;html=1;aspect=fixed;fillColor=#f8cecc;strokeColor=#b85450;" vertex="1" parent="1">
          <mxGeometry x="340" y="530" width="20" height="20" as="geometry" />
        </mxCell>
        <mxCell id="4HVdgIBvoIVfLKKro9Ar-200" value="" style="whiteSpace=wrap;html=1;aspect=fixed;fillColor=#f8cecc;strokeColor=#b85450;" vertex="1" parent="1">
          <mxGeometry x="360" y="530" width="20" height="20" as="geometry" />
        </mxCell>
        <mxCell id="4HVdgIBvoIVfLKKro9Ar-201" value="" style="whiteSpace=wrap;html=1;aspect=fixed;fillColor=#f8cecc;strokeColor=#b85450;" vertex="1" parent="1">
          <mxGeometry x="380" y="530" width="20" height="20" as="geometry" />
        </mxCell>
        <mxCell id="4HVdgIBvoIVfLKKro9Ar-202" value="" style="whiteSpace=wrap;html=1;aspect=fixed;fillColor=#f8cecc;strokeColor=#b85450;" vertex="1" parent="1">
          <mxGeometry x="400" y="530" width="20" height="20" as="geometry" />
        </mxCell>
        <mxCell id="4HVdgIBvoIVfLKKro9Ar-203" value="" style="whiteSpace=wrap;html=1;aspect=fixed;fillColor=#f8cecc;strokeColor=#b85450;" vertex="1" parent="1">
          <mxGeometry x="420" y="530" width="20" height="20" as="geometry" />
        </mxCell>
        <mxCell id="4HVdgIBvoIVfLKKro9Ar-204" value="" style="whiteSpace=wrap;html=1;aspect=fixed;fillColor=#f8cecc;strokeColor=#b85450;" vertex="1" parent="1">
          <mxGeometry x="440" y="530" width="20" height="20" as="geometry" />
        </mxCell>
        <mxCell id="4HVdgIBvoIVfLKKro9Ar-205" value="" style="whiteSpace=wrap;html=1;aspect=fixed;fillColor=#f8cecc;strokeColor=#b85450;" vertex="1" parent="1">
          <mxGeometry x="460" y="530" width="20" height="20" as="geometry" />
        </mxCell>
        <mxCell id="4HVdgIBvoIVfLKKro9Ar-206" value="" style="whiteSpace=wrap;html=1;aspect=fixed;" vertex="1" parent="1">
          <mxGeometry x="240" y="550" width="20" height="20" as="geometry" />
        </mxCell>
        <mxCell id="4HVdgIBvoIVfLKKro9Ar-207" value="" style="whiteSpace=wrap;html=1;aspect=fixed;" vertex="1" parent="1">
          <mxGeometry x="260" y="550" width="20" height="20" as="geometry" />
        </mxCell>
        <mxCell id="4HVdgIBvoIVfLKKro9Ar-208" value="" style="whiteSpace=wrap;html=1;aspect=fixed;" vertex="1" parent="1">
          <mxGeometry x="280" y="550" width="20" height="20" as="geometry" />
        </mxCell>
        <mxCell id="4HVdgIBvoIVfLKKro9Ar-209" value="" style="whiteSpace=wrap;html=1;aspect=fixed;" vertex="1" parent="1">
          <mxGeometry x="300" y="550" width="20" height="20" as="geometry" />
        </mxCell>
        <mxCell id="4HVdgIBvoIVfLKKro9Ar-210" value="" style="whiteSpace=wrap;html=1;aspect=fixed;" vertex="1" parent="1">
          <mxGeometry x="320" y="550" width="20" height="20" as="geometry" />
        </mxCell>
        <mxCell id="4HVdgIBvoIVfLKKro9Ar-211" value="" style="whiteSpace=wrap;html=1;aspect=fixed;" vertex="1" parent="1">
          <mxGeometry x="340" y="550" width="20" height="20" as="geometry" />
        </mxCell>
        <mxCell id="4HVdgIBvoIVfLKKro9Ar-212" value="" style="whiteSpace=wrap;html=1;aspect=fixed;" vertex="1" parent="1">
          <mxGeometry x="360" y="550" width="20" height="20" as="geometry" />
        </mxCell>
        <mxCell id="4HVdgIBvoIVfLKKro9Ar-213" value="" style="whiteSpace=wrap;html=1;aspect=fixed;" vertex="1" parent="1">
          <mxGeometry x="380" y="550" width="20" height="20" as="geometry" />
        </mxCell>
        <mxCell id="4HVdgIBvoIVfLKKro9Ar-214" value="" style="whiteSpace=wrap;html=1;aspect=fixed;" vertex="1" parent="1">
          <mxGeometry x="400" y="550" width="20" height="20" as="geometry" />
        </mxCell>
        <mxCell id="4HVdgIBvoIVfLKKro9Ar-215" value="" style="whiteSpace=wrap;html=1;aspect=fixed;" vertex="1" parent="1">
          <mxGeometry x="420" y="550" width="20" height="20" as="geometry" />
        </mxCell>
        <mxCell id="4HVdgIBvoIVfLKKro9Ar-216" value="" style="whiteSpace=wrap;html=1;aspect=fixed;" vertex="1" parent="1">
          <mxGeometry x="440" y="550" width="20" height="20" as="geometry" />
        </mxCell>
        <mxCell id="4HVdgIBvoIVfLKKro9Ar-217" value="" style="whiteSpace=wrap;html=1;aspect=fixed;" vertex="1" parent="1">
          <mxGeometry x="460" y="550" width="20" height="20" as="geometry" />
        </mxCell>
        <mxCell id="4HVdgIBvoIVfLKKro9Ar-218" value="" style="whiteSpace=wrap;html=1;aspect=fixed;" vertex="1" parent="1">
          <mxGeometry x="240" y="570" width="20" height="20" as="geometry" />
        </mxCell>
        <mxCell id="4HVdgIBvoIVfLKKro9Ar-219" value="" style="whiteSpace=wrap;html=1;aspect=fixed;" vertex="1" parent="1">
          <mxGeometry x="260" y="570" width="20" height="20" as="geometry" />
        </mxCell>
        <mxCell id="4HVdgIBvoIVfLKKro9Ar-220" value="" style="whiteSpace=wrap;html=1;aspect=fixed;" vertex="1" parent="1">
          <mxGeometry x="280" y="570" width="20" height="20" as="geometry" />
        </mxCell>
        <mxCell id="4HVdgIBvoIVfLKKro9Ar-221" value="" style="whiteSpace=wrap;html=1;aspect=fixed;" vertex="1" parent="1">
          <mxGeometry x="300" y="570" width="20" height="20" as="geometry" />
        </mxCell>
        <mxCell id="4HVdgIBvoIVfLKKro9Ar-222" value="" style="whiteSpace=wrap;html=1;aspect=fixed;" vertex="1" parent="1">
          <mxGeometry x="320" y="570" width="20" height="20" as="geometry" />
        </mxCell>
        <mxCell id="4HVdgIBvoIVfLKKro9Ar-223" value="" style="whiteSpace=wrap;html=1;aspect=fixed;" vertex="1" parent="1">
          <mxGeometry x="340" y="570" width="20" height="20" as="geometry" />
        </mxCell>
        <mxCell id="4HVdgIBvoIVfLKKro9Ar-224" value="" style="whiteSpace=wrap;html=1;aspect=fixed;" vertex="1" parent="1">
          <mxGeometry x="360" y="570" width="20" height="20" as="geometry" />
        </mxCell>
        <mxCell id="4HVdgIBvoIVfLKKro9Ar-225" value="" style="whiteSpace=wrap;html=1;aspect=fixed;" vertex="1" parent="1">
          <mxGeometry x="380" y="570" width="20" height="20" as="geometry" />
        </mxCell>
        <mxCell id="4HVdgIBvoIVfLKKro9Ar-226" value="" style="whiteSpace=wrap;html=1;aspect=fixed;" vertex="1" parent="1">
          <mxGeometry x="400" y="570" width="20" height="20" as="geometry" />
        </mxCell>
        <mxCell id="4HVdgIBvoIVfLKKro9Ar-227" value="" style="whiteSpace=wrap;html=1;aspect=fixed;" vertex="1" parent="1">
          <mxGeometry x="420" y="570" width="20" height="20" as="geometry" />
        </mxCell>
        <mxCell id="4HVdgIBvoIVfLKKro9Ar-228" value="" style="whiteSpace=wrap;html=1;aspect=fixed;" vertex="1" parent="1">
          <mxGeometry x="440" y="570" width="20" height="20" as="geometry" />
        </mxCell>
        <mxCell id="4HVdgIBvoIVfLKKro9Ar-229" value="" style="whiteSpace=wrap;html=1;aspect=fixed;" vertex="1" parent="1">
          <mxGeometry x="460" y="570" width="20" height="20" as="geometry" />
        </mxCell>
        <mxCell id="4HVdgIBvoIVfLKKro9Ar-230" value="" style="whiteSpace=wrap;html=1;aspect=fixed;" vertex="1" parent="1">
          <mxGeometry x="240" y="590" width="20" height="20" as="geometry" />
        </mxCell>
        <mxCell id="4HVdgIBvoIVfLKKro9Ar-231" value="" style="whiteSpace=wrap;html=1;aspect=fixed;" vertex="1" parent="1">
          <mxGeometry x="260" y="590" width="20" height="20" as="geometry" />
        </mxCell>
        <mxCell id="4HVdgIBvoIVfLKKro9Ar-232" value="" style="whiteSpace=wrap;html=1;aspect=fixed;" vertex="1" parent="1">
          <mxGeometry x="280" y="590" width="20" height="20" as="geometry" />
        </mxCell>
        <mxCell id="4HVdgIBvoIVfLKKro9Ar-233" value="" style="whiteSpace=wrap;html=1;aspect=fixed;" vertex="1" parent="1">
          <mxGeometry x="300" y="590" width="20" height="20" as="geometry" />
        </mxCell>
        <mxCell id="4HVdgIBvoIVfLKKro9Ar-234" value="" style="whiteSpace=wrap;html=1;aspect=fixed;" vertex="1" parent="1">
          <mxGeometry x="320" y="590" width="20" height="20" as="geometry" />
        </mxCell>
        <mxCell id="4HVdgIBvoIVfLKKro9Ar-235" value="" style="whiteSpace=wrap;html=1;aspect=fixed;" vertex="1" parent="1">
          <mxGeometry x="340" y="590" width="20" height="20" as="geometry" />
        </mxCell>
        <mxCell id="4HVdgIBvoIVfLKKro9Ar-236" value="" style="whiteSpace=wrap;html=1;aspect=fixed;" vertex="1" parent="1">
          <mxGeometry x="360" y="590" width="20" height="20" as="geometry" />
        </mxCell>
        <mxCell id="4HVdgIBvoIVfLKKro9Ar-237" value="" style="whiteSpace=wrap;html=1;aspect=fixed;" vertex="1" parent="1">
          <mxGeometry x="380" y="590" width="20" height="20" as="geometry" />
        </mxCell>
        <mxCell id="4HVdgIBvoIVfLKKro9Ar-238" value="" style="whiteSpace=wrap;html=1;aspect=fixed;" vertex="1" parent="1">
          <mxGeometry x="400" y="590" width="20" height="20" as="geometry" />
        </mxCell>
        <mxCell id="4HVdgIBvoIVfLKKro9Ar-239" value="" style="whiteSpace=wrap;html=1;aspect=fixed;" vertex="1" parent="1">
          <mxGeometry x="420" y="590" width="20" height="20" as="geometry" />
        </mxCell>
        <mxCell id="4HVdgIBvoIVfLKKro9Ar-240" value="" style="whiteSpace=wrap;html=1;aspect=fixed;" vertex="1" parent="1">
          <mxGeometry x="440" y="590" width="20" height="20" as="geometry" />
        </mxCell>
        <mxCell id="4HVdgIBvoIVfLKKro9Ar-241" value="" style="whiteSpace=wrap;html=1;aspect=fixed;" vertex="1" parent="1">
          <mxGeometry x="460" y="590" width="20" height="20" as="geometry" />
        </mxCell>
        <mxCell id="4HVdgIBvoIVfLKKro9Ar-242" value="" style="whiteSpace=wrap;html=1;aspect=fixed;fillColor=#f8cecc;strokeColor=#b85450;" vertex="1" parent="1">
          <mxGeometry x="480" y="530" width="20" height="20" as="geometry" />
        </mxCell>
        <mxCell id="4HVdgIBvoIVfLKKro9Ar-243" value="" style="whiteSpace=wrap;html=1;aspect=fixed;fillColor=#f8cecc;strokeColor=#b85450;" vertex="1" parent="1">
          <mxGeometry x="500" y="530" width="20" height="20" as="geometry" />
        </mxCell>
        <mxCell id="4HVdgIBvoIVfLKKro9Ar-244" value="" style="whiteSpace=wrap;html=1;aspect=fixed;fillColor=#f8cecc;strokeColor=#b85450;" vertex="1" parent="1">
          <mxGeometry x="520" y="530" width="20" height="20" as="geometry" />
        </mxCell>
        <mxCell id="4HVdgIBvoIVfLKKro9Ar-245" value="" style="whiteSpace=wrap;html=1;aspect=fixed;fillColor=#f8cecc;strokeColor=#b85450;" vertex="1" parent="1">
          <mxGeometry x="540" y="530" width="20" height="20" as="geometry" />
        </mxCell>
        <mxCell id="4HVdgIBvoIVfLKKro9Ar-246" value="" style="whiteSpace=wrap;html=1;aspect=fixed;" vertex="1" parent="1">
          <mxGeometry x="480" y="550" width="20" height="20" as="geometry" />
        </mxCell>
        <mxCell id="4HVdgIBvoIVfLKKro9Ar-247" value="" style="whiteSpace=wrap;html=1;aspect=fixed;" vertex="1" parent="1">
          <mxGeometry x="500" y="550" width="20" height="20" as="geometry" />
        </mxCell>
        <mxCell id="4HVdgIBvoIVfLKKro9Ar-248" value="" style="whiteSpace=wrap;html=1;aspect=fixed;" vertex="1" parent="1">
          <mxGeometry x="520" y="550" width="20" height="20" as="geometry" />
        </mxCell>
        <mxCell id="4HVdgIBvoIVfLKKro9Ar-249" value="" style="whiteSpace=wrap;html=1;aspect=fixed;" vertex="1" parent="1">
          <mxGeometry x="540" y="550" width="20" height="20" as="geometry" />
        </mxCell>
        <mxCell id="4HVdgIBvoIVfLKKro9Ar-250" value="" style="whiteSpace=wrap;html=1;aspect=fixed;" vertex="1" parent="1">
          <mxGeometry x="480" y="570" width="20" height="20" as="geometry" />
        </mxCell>
        <mxCell id="4HVdgIBvoIVfLKKro9Ar-251" value="" style="whiteSpace=wrap;html=1;aspect=fixed;" vertex="1" parent="1">
          <mxGeometry x="500" y="570" width="20" height="20" as="geometry" />
        </mxCell>
        <mxCell id="4HVdgIBvoIVfLKKro9Ar-252" value="" style="whiteSpace=wrap;html=1;aspect=fixed;" vertex="1" parent="1">
          <mxGeometry x="520" y="570" width="20" height="20" as="geometry" />
        </mxCell>
        <mxCell id="4HVdgIBvoIVfLKKro9Ar-253" value="" style="whiteSpace=wrap;html=1;aspect=fixed;" vertex="1" parent="1">
          <mxGeometry x="540" y="570" width="20" height="20" as="geometry" />
        </mxCell>
        <mxCell id="4HVdgIBvoIVfLKKro9Ar-254" value="" style="whiteSpace=wrap;html=1;aspect=fixed;" vertex="1" parent="1">
          <mxGeometry x="480" y="590" width="20" height="20" as="geometry" />
        </mxCell>
        <mxCell id="4HVdgIBvoIVfLKKro9Ar-255" value="" style="whiteSpace=wrap;html=1;aspect=fixed;" vertex="1" parent="1">
          <mxGeometry x="500" y="590" width="20" height="20" as="geometry" />
        </mxCell>
        <mxCell id="4HVdgIBvoIVfLKKro9Ar-256" value="" style="whiteSpace=wrap;html=1;aspect=fixed;" vertex="1" parent="1">
          <mxGeometry x="520" y="590" width="20" height="20" as="geometry" />
        </mxCell>
        <mxCell id="4HVdgIBvoIVfLKKro9Ar-257" value="" style="whiteSpace=wrap;html=1;aspect=fixed;" vertex="1" parent="1">
          <mxGeometry x="540" y="590" width="20" height="20" as="geometry" />
        </mxCell>
        <mxCell id="4HVdgIBvoIVfLKKro9Ar-258" value="" style="endArrow=classic;startArrow=classic;html=1;rounded=0;" edge="1" parent="1">
          <mxGeometry width="50" height="50" relative="1" as="geometry">
            <mxPoint x="240" y="190" as="sourcePoint" />
            <mxPoint x="560" y="190" as="targetPoint" />
          </mxGeometry>
        </mxCell>
        <mxCell id="4HVdgIBvoIVfLKKro9Ar-259" value="M" style="edgeLabel;html=1;align=center;verticalAlign=middle;resizable=0;points=[];" vertex="1" connectable="0" parent="4HVdgIBvoIVfLKKro9Ar-258">
          <mxGeometry x="-0.0063" relative="1" as="geometry">
            <mxPoint as="offset" />
          </mxGeometry>
        </mxCell>
        <mxCell id="4HVdgIBvoIVfLKKro9Ar-260" value="" style="endArrow=classic;startArrow=classic;html=1;rounded=0;" edge="1" parent="1">
          <mxGeometry width="50" height="50" relative="1" as="geometry">
            <mxPoint x="210" y="310" as="sourcePoint" />
            <mxPoint x="210" y="230" as="targetPoint" />
          </mxGeometry>
        </mxCell>
        <mxCell id="4HVdgIBvoIVfLKKro9Ar-261" value="N/4" style="edgeLabel;html=1;align=center;verticalAlign=middle;resizable=0;points=[];" vertex="1" connectable="0" parent="4HVdgIBvoIVfLKKro9Ar-260">
          <mxGeometry x="-0.0768" relative="1" as="geometry">
            <mxPoint as="offset" />
          </mxGeometry>
        </mxCell>
        <mxCell id="4HVdgIBvoIVfLKKro9Ar-262" value="" style="endArrow=classic;startArrow=classic;html=1;rounded=0;" edge="1" parent="1">
          <mxGeometry width="50" height="50" relative="1" as="geometry">
            <mxPoint x="210" y="410" as="sourcePoint" />
            <mxPoint x="210" y="330" as="targetPoint" />
          </mxGeometry>
        </mxCell>
        <mxCell id="4HVdgIBvoIVfLKKro9Ar-263" value="N/n" style="edgeLabel;html=1;align=center;verticalAlign=middle;resizable=0;points=[];" vertex="1" connectable="0" parent="4HVdgIBvoIVfLKKro9Ar-262">
          <mxGeometry x="-0.0768" relative="1" as="geometry">
            <mxPoint as="offset" />
          </mxGeometry>
        </mxCell>
        <mxCell id="4HVdgIBvoIVfLKKro9Ar-264" value="" style="endArrow=classic;startArrow=classic;html=1;rounded=0;" edge="1" parent="1">
          <mxGeometry width="50" height="50" relative="1" as="geometry">
            <mxPoint x="210" y="510" as="sourcePoint" />
            <mxPoint x="210" y="430" as="targetPoint" />
          </mxGeometry>
        </mxCell>
        <mxCell id="4HVdgIBvoIVfLKKro9Ar-265" value="N/n" style="edgeLabel;html=1;align=center;verticalAlign=middle;resizable=0;points=[];" vertex="1" connectable="0" parent="4HVdgIBvoIVfLKKro9Ar-264">
          <mxGeometry x="-0.0768" relative="1" as="geometry">
            <mxPoint as="offset" />
          </mxGeometry>
        </mxCell>
        <mxCell id="4HVdgIBvoIVfLKKro9Ar-266" value="" style="endArrow=classic;startArrow=classic;html=1;rounded=0;" edge="1" parent="1">
          <mxGeometry width="50" height="50" relative="1" as="geometry">
            <mxPoint x="210" y="610" as="sourcePoint" />
            <mxPoint x="210" y="530" as="targetPoint" />
          </mxGeometry>
        </mxCell>
        <mxCell id="4HVdgIBvoIVfLKKro9Ar-267" value="N/n" style="edgeLabel;html=1;align=center;verticalAlign=middle;resizable=0;points=[];" vertex="1" connectable="0" parent="4HVdgIBvoIVfLKKro9Ar-266">
          <mxGeometry x="-0.0768" relative="1" as="geometry">
            <mxPoint as="offset" />
          </mxGeometry>
        </mxCell>
      </root>
    </mxGraphModel>
  </diagram>
</mxfile>
